<svg width="42" height="49" viewBox="0 0 42 49" fill="none" xmlns="http://www.w3.org/2000/svg">
<path d="M30.2727 7.00017H36.7331C37.0271 6.99674 37.3189 7.04642 37.592 7.14638C37.8649 7.24633 38.1139 7.39461 38.3243 7.58275C38.5348 7.77088 38.7028 7.99519 38.8188 8.24285C38.9348 8.4905 38.9963 8.75667 39 9.02615V43.9738C38.9963 44.2433 38.9348 44.5095 38.8188 44.7571C38.7028 45.0048 38.5348 45.2291 38.3243 45.4172C38.1139 45.6054 37.8649 45.7536 37.592 45.8536C37.3189 45.9536 37.0271 46.0033 36.7331 45.9998H5.26691C4.97293 46.0033 4.6811 45.9536 4.40807 45.8536C4.13504 45.7536 3.88617 45.6054 3.67565 45.4172C3.46515 45.2291 3.29713 45.0048 3.18121 44.7571C3.06528 44.5095 3.0037 44.2433 3 43.9738V9.02615C3.0037 8.75667 3.06528 8.4905 3.18121 8.24285C3.29713 7.99519 3.46515 7.77088 3.67565 7.58275C3.88617 7.39461 4.13504 7.24633 4.40807 7.14638C4.6811 7.04642 4.97293 6.99674 5.26691 7.00017H11.7273" stroke="black" stroke-width="2.5" stroke-miterlimit="10"/>
<path d="M28.9242 4.96589H23.6471V4.59071C23.6573 4.02073 23.467 3.4639 23.1061 3.00909C22.7453 2.55427 22.2349 2.2277 21.6565 2.08149C21.2698 1.98532 20.8652 1.97412 20.4733 2.0487C20.0815 2.12328 19.7125 2.28172 19.3943 2.51202C19.0761 2.74234 18.817 3.03852 18.6366 3.37818C18.4563 3.71784 18.3592 4.09211 18.3529 4.47272V4.96589H13.0758C12.7904 4.96589 12.5168 5.07384 12.3151 5.266C12.1133 5.45816 12 5.71879 12 5.99055V7.97534C12 8.24709 12.1133 8.50772 12.3151 8.69988C12.5168 8.89204 12.7904 9 13.0758 9H28.9242C29.2096 9 29.4832 8.89204 29.6849 8.69988C29.8867 8.50772 30 8.24709 30 7.97534V5.99055C30 5.71879 29.8867 5.45816 29.6849 5.266C29.4832 5.07384 29.2096 4.96589 28.9242 4.96589Z" stroke="black" stroke-width="2" stroke-miterlimit="10" stroke-linecap="round"/>
<path d="M16 16L34 16" stroke="black" stroke-width="2.5" stroke-miterlimit="10" stroke-linecap="round"/>
<path d="M7 14.5L8.66667 16L12 12" stroke="black" stroke-width="2.5" stroke-miterlimit="10" stroke-linecap="round"/>
<path d="M16 24L34 24" stroke="black" stroke-width="2.5" stroke-miterlimit="10" stroke-linecap="round"/>
<path d="M7 22.5L8.66667 24L12 20" stroke="black" stroke-width="2.5" stroke-miterlimit="10" stroke-linecap="round"/>
<path d="M16 32L34 32" stroke="black" stroke-width="2.5" stroke-miterlimit="10" stroke-linecap="round"/>
<path d="M7 30.5L8.66667 32L12 28" stroke="black" stroke-width="2.5" stroke-miterlimit="10" stroke-linecap="round"/>
<path d="M16 40L34 40" stroke="black" stroke-width="2.5" stroke-miterlimit="10" stroke-linecap="round"/>
<path d="M7 38.5L8.66667 40L12 36" stroke="black" stroke-width="2.5" stroke-miterlimit="10" stroke-linecap="round"/>
</svg>
