<svg width="64" height="64" viewBox="0 0 64 64" fill="none" xmlns="http://www.w3.org/2000/svg">
<g clip-path="url(#clip0_8_43)">
<path d="M49.1667 64H9.83333C7.22537 64 4.72422 62.964 2.88012 61.1199C1.03601 59.2758 0 56.7746 0 54.1667V14.8333C0 12.2254 1.03601 9.72422 2.88012 7.88012C4.72422 6.03601 7.22537 5 9.83333 5H22.9444C23.8138 5 24.6475 5.34534 25.2622 5.96004C25.8769 6.57474 26.2222 7.40846 26.2222 8.27778C26.2222 9.1471 25.8769 9.98081 25.2622 10.5955C24.6475 11.2102 23.8138 11.5556 22.9444 11.5556H9.83333C8.96401 11.5556 8.1303 11.9009 7.51559 12.5156C6.90089 13.1303 6.55556 13.964 6.55556 14.8333V54.1667C6.55556 55.036 6.90089 55.8697 7.51559 56.4844C8.1303 57.0991 8.96401 57.4444 9.83333 57.4444H49.1667C50.036 57.4444 50.8697 57.0991 51.4844 56.4844C52.0991 55.8697 52.4444 55.036 52.4444 54.1667V41.0556C52.4444 40.1862 52.7898 39.3525 53.4045 38.7378C54.0192 38.1231 54.8529 37.7778 55.7222 37.7778C56.5915 37.7778 57.4253 38.1231 58.04 38.7378C58.6547 39.3525 59 40.1862 59 41.0556V54.1667C59 56.7746 57.964 59.2758 56.1199 61.1199C54.2758 62.964 51.7746 64 49.1667 64Z" fill="#9CA3AF"/>
<path d="M41.2684 11L24.8176 27.6032C24.5932 27.8032 24.4413 28.0718 24.3855 28.367L21.0621 41.0519C20.9816 41.3316 20.9793 41.6281 21.0555 41.9091C21.1316 42.1901 21.2834 42.4449 21.4942 42.6458C21.6562 42.7756 21.8426 42.8719 22.0423 42.9289C22.242 42.9859 22.4511 43.0026 22.6574 42.9778C22.7999 43.0074 22.9469 43.0074 23.0894 42.9778L35.7848 39.6572C36.0803 39.6015 36.349 39.4497 36.5492 39.2255L53 22.7219L41.2684 11V11Z" fill="#9CA3AF"/>
<path d="M62.5579 6.24392L57.7561 1.44214C56.8149 0.517855 55.5484 0 54.2293 0C52.9101 0 51.6437 0.517855 50.7024 1.44214L46 6.24392L57.7561 18L62.5579 13.2976C63.4821 12.3563 64 11.0899 64 9.77074C64 8.45158 63.4821 7.18513 62.5579 6.24392V6.24392Z" fill="#9CA3AF"/>
</g>
<defs>
<clipPath id="clip0_8_43">
<rect width="64" height="64" fill="white"/>
</clipPath>
</defs>
</svg>
