<svg width="64" height="64" viewBox="0 0 64 64" fill="none" xmlns="http://www.w3.org/2000/svg">
<g clip-path="url(#clip0_101_2)">
<path d="M44.4656 9.00488L26.4725 27.1647C26.2271 27.3834 26.061 27.6771 26 28L21.068 40.8693C20.9799 41.1753 20.9774 41.4995 21.0607 41.8068C21.144 42.1142 21.3099 42.3928 21.5405 42.6126C21.7178 42.7546 21.9216 42.8599 22.14 42.9222C22.3585 42.9846 22.5872 43.0028 22.8128 42.9758C22.9686 43.0081 23.1294 43.0081 23.2853 42.9758L36 38C36.3232 37.9391 36.6171 37.7731 36.836 37.5278L54.8291 19.477L44.4656 9.00488Z" fill="black"/>
<path d="M61.7181 6.55015L57.4498 2.2819C56.6132 1.46032 55.4875 1 54.3149 1C53.1423 1 52.0166 1.46032 51.1799 2.2819L47 6.55015L57.4498 17L61.7181 12.8201C62.5397 11.9834 63 10.8577 63 9.6851C63 8.51252 62.5397 7.38679 61.7181 6.55015V6.55015Z" fill="black"/>
<path d="M26 1.99999L9.99998 1.99999C5.5817 1.99999 1.99998 5.58171 1.99998 9.99999L1.99998 54C1.99998 58.4183 5.5817 62 9.99998 62L54 62C58.4183 62 62 58.4182 62 54L62 38" stroke="black" stroke-width="4" stroke-linecap="round"/>
</g>
<defs>
<clipPath id="clip0_101_2">
<rect width="64" height="64" fill="white"/>
</clipPath>
</defs>
</svg>
