<svg width="23" height="25" viewBox="0 0 23 25" fill="none" xmlns="http://www.w3.org/2000/svg">
<path d="M17 21.4355H5C4.20435 21.4355 3.44129 21.1194 2.87868 20.5568C2.31607 19.9942 2 19.2311 2 18.4355V6.43549C2 5.63984 2.31607 4.87677 2.87868 4.31417C3.44129 3.75156 4.20435 3.43549 5 3.43549H9C9.26522 3.43549 9.51957 3.54084 9.70711 3.72838C9.89464 3.91592 10 4.17027 10 4.43549C10 4.7007 9.89464 4.95506 9.70711 5.14259C9.51957 5.33013 9.26522 5.43549 9 5.43549H5C4.73478 5.43549 4.48043 5.54084 4.29289 5.72838C4.10536 5.91592 4 6.17027 4 6.43549V18.4355C4 18.7007 4.10536 18.9551 4.29289 19.1426C4.48043 19.3301 4.73478 19.4355 5 19.4355H17C17.2652 19.4355 17.5196 19.3301 17.7071 19.1426C17.8946 18.9551 18 18.7007 18 18.4355V14.4355C18 14.1703 18.1054 13.9159 18.2929 13.7284C18.4804 13.5408 18.7348 13.4355 19 13.4355C19.2652 13.4355 19.5196 13.5408 19.7071 13.7284C19.8946 13.9159 20 14.1703 20 14.4355V18.4355C20 19.2311 19.6839 19.9942 19.1213 20.5568C18.5587 21.1194 17.7956 21.4355 17 21.4355Z" fill="#9CA3AF"/>
<path d="M14.6 5.30548L9.64999 10.3055C9.58247 10.3657 9.53676 10.4466 9.52 10.5355L8.52 14.3555C8.49577 14.4397 8.49507 14.529 8.51799 14.6136C8.54091 14.6982 8.58656 14.775 8.64999 14.8355C8.69875 14.8746 8.75482 14.9036 8.81492 14.9207C8.87502 14.9379 8.93794 14.9429 9 14.9355C9.04287 14.9444 9.08712 14.9444 9.13 14.9355L12.95 13.9355C13.0389 13.9187 13.1198 13.873 13.18 13.8055L18.13 8.83548L14.6 5.30548V5.30548Z" fill="#9CA3AF"/>
<path d="M21 3.88548L19.55 2.43548C19.2658 2.15638 18.8833 2 18.485 2C18.0867 2 17.7042 2.15638 17.42 2.43548L16 3.88548L19.55 7.43548L21 6.01548C21.2791 5.73126 21.4355 5.34883 21.4355 4.95048C21.4355 4.55213 21.2791 4.1697 21 3.88548V3.88548Z" fill="#9CA3AF"/>
</svg>
