<svg width="50" height="36" viewBox="0 0 50 36" fill="none" xmlns="http://www.w3.org/2000/svg">
<path d="M46 1L4 1C3.20435 1 2.44129 1.31607 1.87868 1.87868C1.31607 2.44129 1 3.20435 1 4L1 32C1 32.7956 1.31607 33.5587 1.87868 34.1213C2.44129 34.6839 3.20435 35 4 35H46C46.7956 35 47.5587 34.6839 48.1213 34.1213C48.6839 33.5587 49 32.7956 49 32V4C49 3.20435 48.6839 2.44129 48.1213 1.87868C47.5587 1.31607 46.7956 1 46 1ZM45.36 3L25 18.74L4.64 3L45.36 3ZM3 31.59L3 4.26L18.41 16.17L3 31.59ZM4.41 33L20 17.41L24.38 20.8C24.5549 20.9346 24.7693 21.0076 24.99 21.0076C25.2107 21.0076 25.4251 20.9346 25.6 20.8L30 17.41L45.59 33H4.41ZM47 31.59L31.59 16.17L47 4.26V31.59Z" fill="black" stroke="black" stroke-width="0.7"/>
</svg>
