<svg viewBox="0 0 128 128" xml:space="preserve" xmlns="http://www.w3.org/2000/svg"><path d="M80 88h-4V77.957C92.172 72.824 104 57.848 104 40c0-22.055-17.945-40-40-40S24 17.945 24 40c0 17.848 11.828 32.824 28 37.957V88h-4c-6.617 0-12 5.383-12 12s5.383 12 12 12h4v4c0 6.617 5.383 12 12 12s12-5.383 12-12v-4h4c6.617 0 12-5.383 12-12s-5.383-12-12-12zm0 16H68v12c0 2.207-1.797 4-4 4s-4-1.793-4-4v-12H48c-2.203 0-4-1.793-4-4s1.797-4 4-4h12V72.102l-5.578-1.77C41.008 66.074 32 53.887 32 40 32 22.355 46.352 8 64 8s32 14.355 32 32c0 13.887-9.008 26.074-22.422 30.332L68 72.102V96h12c2.203 0 4 1.793 4 4s-1.797 4-4 4zm8-64c0-13.254-10.742-24-24-24S40 26.746 40 40s10.742 24 24 24 24-10.746 24-24zM64 56c-8.82 0-16-7.176-16-16s7.18-16 16-16 16 7.176 16 16-7.18 16-16 16z" fill="#000000" class="fill-f44336"></path></svg>