<svg width="64" height="64" viewBox="0 0 64 64" fill="none" xmlns="http://www.w3.org/2000/svg">
<g clip-path="url(#clip0_12_3)">
<path d="M57.7625 7.85749C54.85 5.23999 51.1125 3.88749 47.3375 3.99999C42.6513 3.99999 37.9213 5.92499 34.4625 9.49749L32 12.0312L29.5375 9.49749C26.075 5.92499 21.35 3.99999 16.6625 3.99999C12.8875 3.99999 9.15375 5.24124 6.13 7.85749C-1.63751 14.5812 -2.02626 26.57 4.97625 33.8075L29.1262 58.77C29.925 59.5875 30.95 60 31.9875 60C33.029 60 34.0738 59.5916 34.8638 58.7745L59.0013 33.812C66.025 26.5625 65.6375 14.575 57.7625 7.85749ZM54.7 29.6375L32 53.1125L9.29249 29.6375C5.26249 25.475 4.30749 17.2625 10.0575 12.3937C15.045 8.07624 21.8812 10.2062 25.2325 13.665L32.0037 20.655L38.7738 13.665C42.0763 10.2562 48.9313 8.05374 53.9488 12.3937C59.6375 17.325 58.8125 25.3875 54.7 29.6375Z" fill="black"/>
</g>
<defs>
<clipPath id="clip0_12_3">
<rect width="64" height="64" fill="white"/>
</clipPath>
</defs>
</svg>
