<svg viewBox="0 0 128 128" xml:space="preserve" xmlns="http://www.w3.org/2000/svg"><path d="M104 8H81.375a15.904 15.904 0 0 0-11.313 4.68c-3.023 3.035-4.688 7.055-4.688 11.32 0 4.41 1.797 8.41 4.688 11.305l-7.516 7.52C58.031 41.055 53.148 40 48 40 25.906 40 8 57.91 8 80s17.906 40 40 40 40-17.91 40-40c0-5.145-1.055-10.027-2.828-14.547l7.523-7.52A15.935 15.935 0 0 0 104 62.624c8.82 0 16-7.176 16-16V24c0-8.824-7.18-16-16-16zm8 38.625c0 4.41-3.586 8-8 8a7.955 7.955 0 0 1-5.648-2.348l-5.656-5.656-5.656 5.652L75.813 63.5l1.914 4.875C79.234 72.223 80 76.133 80 80c0 17.645-14.352 32-32 32S16 97.645 16 80s14.352-32 32-32c3.867 0 7.781.766 11.625 2.273l4.875 1.91 3.703-3.703 7.516-7.52 5.656-5.652-5.648-5.656A7.946 7.946 0 0 1 73.375 24c0-2.133.836-4.148 2.352-5.664A7.909 7.909 0 0 1 81.375 16H104c4.414 0 8 3.59 8 8v22.625zM48 56c-13.258 0-24 10.746-24 24s10.742 24 24 24 24-10.746 24-24-10.742-24-24-24zm0 40c-8.82 0-16-7.176-16-16s7.18-16 16-16 16 7.176 16 16-7.18 16-16 16z" fill="#000000" class="fill-03a9f4"></path></svg>