<svg width="80" height="76" viewBox="0 0 80 76" fill="none" xmlns="http://www.w3.org/2000/svg">
<path d="M22.7818 13.9325L19.9904 8L17.2182 13.9325L11 14.8841L15.5048 19.4803L14.4267 26L19.9904 22.9224L25.554 26L24.4952 19.4803L29 14.8841L22.7818 13.9325Z" fill="black"/>
<path d="M43.7752 13.9325L41 8L38.2248 13.9325L32 14.8841L36.4904 19.4803L35.4304 26L41 22.9224L46.5696 26L45.5096 19.4803L50 14.8841L43.7752 13.9325Z" fill="black"/>
<path d="M64.7192 13.9059L61.9426 8L59.1851 13.9059L53 14.8533L57.4809 19.4289L56.4277 26L61.9426 22.9362L67.4766 26L66.5191 19.5095L71 14.9339L64.7192 13.9059ZM65.083 17.9373L64.3745 18.6629L64.6043 19.953L64.9872 22.4121L62.9 21.2632L62 20.7592L61.1192 21.2632L59.0319 22.4121L59.4149 19.953L59.5872 18.9048L58.8596 18.0784L57.1553 16.3248L59.4532 15.9216L60.4489 15.7604L60.9085 14.813L61.9426 12.5756L62.9957 14.813L63.4362 15.7604L64.4511 15.9216L66.7872 16.2643L65.083 17.9373Z" fill="black"/>
<path d="M3 52V8C3 5.23858 5.23858 3 8 3H72C74.7614 3 77 5.23858 77 8V52C77 54.7614 74.7614 57 72 57H40.3275C40.0808 57 39.8427 57.0913 39.6591 57.2562L21.5825 73.5007C20.9388 74.0791 19.9141 73.6223 19.9141 72.7569V58C19.9141 57.4477 19.4664 57 18.9141 57H8C5.23858 57 3 54.7614 3 52Z" stroke="black" stroke-width="4" stroke-linecap="round"/>
<path d="M11 35H56" stroke="black" stroke-width="3" stroke-linecap="round"/>
<path d="M11 42H44" stroke="black" stroke-width="3" stroke-linecap="round"/>
<path d="M11 49H52" stroke="black" stroke-width="3" stroke-linecap="round"/>
</svg>
