<svg width="64" height="64" viewBox="0 0 64 64" fill="none" xmlns="http://www.w3.org/2000/svg">
<g clip-path="url(#clip0_104_2)">
<path d="M47.7388 2H47.7385H7.11077H7.11034C6.4392 1.99985 5.7746 2.13194 5.15452 2.38871C4.53444 2.64547 3.97103 3.02189 3.49646 3.49646C3.02189 3.97103 2.64547 4.53444 2.38871 5.15452C2.13194 5.7746 1.99985 6.4392 2 7.11034V7.11077V56.8892V56.8897C1.99985 57.5608 2.13194 58.2254 2.38871 58.8455C2.64547 59.4656 3.02189 60.029 3.49646 60.5035C3.97103 60.9781 4.53444 61.3545 5.15452 61.6113C5.7746 61.8681 6.4392 62.0001 7.11034 62H7.11077H56.8856C58.2405 61.9953 59.5387 61.455 60.4968 60.4968C61.455 59.5387 61.9953 58.2405 62 56.8856V16.2615V16.2612C62.0001 15.8773 61.9245 15.4972 61.7776 15.1425C61.6308 14.7879 61.4156 14.4657 61.1442 14.1942L47.7388 2ZM47.7388 2C48.1227 1.99994 48.5028 2.07549 48.8575 2.22235C49.2121 2.36918 49.5343 2.58441 49.8058 2.85575C49.8058 2.85581 49.8059 2.85586 49.806 2.85591L61.1441 14.1941L47.7388 2ZM12.8462 26.1538H42.3846C43.5679 26.1538 44.7027 25.6838 45.5394 24.8471C46.3761 24.0104 46.8462 22.8756 46.8462 21.6923V12.8462C46.8462 11.6629 46.3761 10.5281 45.5394 9.69137C44.7027 8.85467 43.5679 8.38461 42.3846 8.38461H12.8462C11.6629 8.38461 10.5281 8.85467 9.69137 9.69137C8.85467 10.5281 8.38461 11.6629 8.38461 12.8462V21.6923C8.38461 22.8756 8.85467 24.0104 9.69137 24.8471C10.5281 25.6838 11.6629 26.1538 12.8462 26.1538Z" stroke="black" stroke-width="4" stroke-linecap="round" stroke-linejoin="round"/>
<path d="M41 45C41 40 37 36 32 36C27 36 23 40 23 45C23 50 27 54 32 54C37 54 41 50 41 45Z" stroke="black" stroke-width="4" stroke-linecap="round"/>
</g>
<defs>
<clipPath id="clip0_104_2">
<rect width="64" height="64" fill="white"/>
</clipPath>
</defs>
</svg>
