<?xml version="1.0" ?><svg enable-background="new 0 0 32 32" version="1.1" viewBox="0 0 32 32" xml:space="preserve" xmlns="http://www.w3.org/2000/svg" xmlns:xlink="http://www.w3.org/1999/xlink"><g id="OUTLINE_copy_2"><g><g><polygon points="13.83,19.259 19.262,16 13.83,12.741    "/></g><g><path d="M16,0C7.164,0,0,7.163,0,16s7.164,16,16,16s16-7.164,16-16S24.836,0,16,0z M24.688,16.701c0,1.5-0.174,3-0.174,3     s-0.17,1.278-0.69,1.839c-0.661,0.738-1.401,0.742-1.741,0.786C19.651,22.512,16,22.518,16,22.518s-4.518-0.044-5.908-0.186     c-0.387-0.077-1.254-0.055-1.916-0.792c-0.521-0.562-0.69-1.839-0.69-1.839s-0.174-1.499-0.174-3v-1.406     c0-1.5,0.174-2.999,0.174-2.999s0.17-1.278,0.69-1.841C8.837,9.716,9.577,9.712,9.917,9.67c2.431-0.188,6.079-0.188,6.079-0.188     h0.008c0,0,3.648,0,6.079,0.188c0.339,0.042,1.08,0.046,1.741,0.784c0.521,0.563,0.69,1.841,0.69,1.841s0.174,1.5,0.174,3V16.701     z"/></g></g></g></svg>